<svg id="Layer_1" data-name="Layer 1" xmlns="http://www.w3.org/2000/svg" viewBox="0 0 110.75 114.41"><defs><style>.cls-1{fill:#fff200;}.cls-1,.cls-2{stroke:#231f20;stroke-miterlimit:10;}.cls-2{fill:#fff;}.cls-3{font-size:20.8px;}.cls-3,.cls-4,.cls-5{fill:#4679bd;}.cls-3,.cls-4{font-family:Calibri-Bold, Calibri;font-weight:700;}.cls-4{font-size:19px;}</style></defs><title>RoundLogo</title><circle class="cls-1" cx="55.38" cy="55.38" r="54.88"/><circle class="cls-2" cx="55.38" cy="55.38" r="36.88"/><text class="cls-3" transform="matrix(0.88, 0.48, -0.48, 0.88, 22.42, 96.53)">W</text><text class="cls-3" transform="matrix(1, 0.07, -0.07, 1, 45.44, 106.69)">A</text><text class="cls-3" transform="translate(62.25 107.04) rotate(-12.95)">S</text><text class="cls-3" transform="matrix(0.86, -0.51, 0.51, 0.86, 76.17, 103.36)">H</text><text class="cls-4" transform="translate(29.85 24.81) rotate(-27.43)">W</text><text class="cls-4" transform="translate(46.31 17.13) rotate(-4.85)">A</text><text class="cls-4" transform="translate(59.5 16.24) rotate(14.83)">G</text><text class="cls-4" transform="translate(72.87 20.36) rotate(33.18)">S</text><path class="cls-5" d="M41.67,85.41c-.11-.24-.35-.18-.54-.21-5.17-.93-6.45-5.75-4.47-9.65a76.72,76.72,0,0,1,4.47-7.44A61.55,61.55,0,0,1,47.4,60c2.75-2.95,6.21-3.83,10.07-3.64a11.55,11.55,0,0,1,8.7,4.47,97,97,0,0,1,9.59,13.93A8.08,8.08,0,0,1,77,80.25a5.88,5.88,0,0,1-4.63,4.8,3.56,3.56,0,0,0-1.32.36H67.44a12.39,12.39,0,0,1-5-1.83,13.18,13.18,0,0,0-7.33-1.24,12.51,12.51,0,0,0-6.08,2,8.12,8.12,0,0,1-3.78,1.1Z"/><path class="cls-5" d="M65.84,25.34c3.66,1.07,5.46,3.85,6.47,7.24a18.06,18.06,0,0,1-1.09,13.86A8.84,8.84,0,0,1,68,50.06c-2.89,1.82-6.2.95-8.49-2.18a14.66,14.66,0,0,1-2.66-7.05,18.21,18.21,0,0,1,1.63-10.7,9,9,0,0,1,5.37-4.79Z"/><path class="cls-5" d="M46.83,25.34c4,1.38,5.75,4.56,6.63,8.37a17.68,17.68,0,0,1-1.81,13.43,8,8,0,0,1-3.72,3.42c-2.56,1.1-5.4.13-7.39-2.48a15.1,15.1,0,0,1-2.88-7.88,17.76,17.76,0,0,1,1.92-10.47,8.44,8.44,0,0,1,5.29-4.39Z"/><path class="cls-5" d="M84.7,50.86c-.46,5.13-2.36,9.45-7,12.19a5.38,5.38,0,0,1-3.48.78A4.73,4.73,0,0,1,70.13,60c-1.08-4,.08-7.64,2.23-11a11.78,11.78,0,0,1,4.1-4c3.62-2.09,7.18-.5,8,3.59A9.56,9.56,0,0,1,84.7,50.86Z"/><path class="cls-5" d="M41,57.22a8.44,8.44,0,0,1-.77,3.87,4.64,4.64,0,0,1-5.77,2.53,11,11,0,0,1-6.15-5.31,13.74,13.74,0,0,1-2.06-9.39c.67-4.26,4.32-6.05,8-3.86s5.68,5.78,6.55,10A8.46,8.46,0,0,1,41,56.25C41,56.57,41,56.9,41,57.22Z"/></svg>