<svg id="Layer_1" data-name="Layer 1" xmlns="http://www.w3.org/2000/svg" viewBox="0 0 338.42 209.62"><defs><style>.cls-1{font-size:103.01px;fill:#231f20;font-family:Candara-Italic, Candara;font-style:italic;}.cls-2{fill:#4679bd;}</style></defs><title>TextLogo</title><text class="cls-1" transform="translate(45.21 180.45)"><tspan xml:space="preserve">W    SH</tspan></text><path class="cls-2" d="M161.55,186.19c-.14-.32-.45-.24-.69-.28-6.61-1.18-8.25-7.35-5.72-12.34a95.3,95.3,0,0,1,5.72-9.5,76.9,76.9,0,0,1,8-10.41c3.52-3.77,7.94-4.88,12.87-4.64a14.7,14.7,0,0,1,11.12,5.71,122.3,122.3,0,0,1,12.26,17.8,10.24,10.24,0,0,1,1.52,7.05,7.53,7.53,0,0,1-5.91,6.15,4.35,4.35,0,0,0-1.69.46H194.5a16,16,0,0,1-6.41-2.35c-2.92-1.6-6.12-1.76-9.38-1.58a15.93,15.93,0,0,0-7.78,2.52,10.53,10.53,0,0,1-4.83,1.41Z"/><path class="cls-2" d="M192.46,109.38c4.67,1.36,7,4.92,8.27,9.25a23.16,23.16,0,0,1-1.4,17.73,11.53,11.53,0,0,1-4.07,4.63c-3.69,2.32-7.92,1.21-10.85-2.8a18.85,18.85,0,0,1-3.4-9,23.36,23.36,0,0,1,2.09-13.69,11.5,11.5,0,0,1,6.86-6.12Z"/><path class="cls-2" d="M168.14,109.38c5.11,1.75,7.36,5.83,8.48,10.69,1.38,6,.89,11.79-2.31,17.18a10.26,10.26,0,0,1-4.76,4.38c-3.28,1.4-6.9.16-9.44-3.18a19.29,19.29,0,0,1-3.69-10.08A22.63,22.63,0,0,1,158.88,115a10.78,10.78,0,0,1,6.76-5.6Z"/><path class="cls-2" d="M216.57,142c-.59,6.56-3,12.08-9,15.58a6.86,6.86,0,0,1-4.46,1,6.06,6.06,0,0,1-5.21-4.85c-1.38-5.14.1-9.77,2.85-14.09a15.08,15.08,0,0,1,5.24-5.08c4.63-2.66,9.18-.63,10.24,4.59A12.26,12.26,0,0,1,216.57,142Z"/><path class="cls-2" d="M160.64,150.14a10.82,10.82,0,0,1-1,5,5.92,5.92,0,0,1-7.37,3.23c-3.6-1.11-6-3.65-7.87-6.79a17.57,17.57,0,0,1-2.63-12c.86-5.44,5.52-7.72,10.25-4.93s7.27,7.38,8.38,12.74a13.48,13.48,0,0,1,.22,1.57C160.66,149.31,160.64,149.73,160.64,150.14Z"/><path class="cls-2" d="M116.34,90.14c-.14-.31-.45-.23-.69-.28-6.61-1.17-8.25-7.35-5.72-12.33a96,96,0,0,1,5.71-9.5,77.79,77.79,0,0,1,8-10.41c3.51-3.77,7.94-4.89,12.86-4.65a14.74,14.74,0,0,1,11.13,5.72,121.23,121.23,0,0,1,12.26,17.8,10.24,10.24,0,0,1,1.52,7.05,7.51,7.51,0,0,1-5.92,6.14,4.73,4.73,0,0,0-1.68.46h-4.55a15.91,15.91,0,0,1-6.41-2.34c-2.92-1.61-6.12-1.76-9.38-1.59a16,16,0,0,0-7.78,2.53,10.52,10.52,0,0,1-4.84,1.4Z"/><path class="cls-2" d="M147.25,13.33c4.67,1.37,7,4.93,8.27,9.26a23.14,23.14,0,0,1-1.4,17.72,11.4,11.4,0,0,1-4.07,4.63c-3.69,2.32-7.93,1.22-10.85-2.79a18.89,18.89,0,0,1-3.4-9,23.32,23.32,0,0,1,2.09-13.68,11.52,11.52,0,0,1,6.86-6.13Z"/><path class="cls-2" d="M122.93,13.33c5.11,1.76,7.36,5.84,8.48,10.7,1.38,6,.89,11.79-2.31,17.18a10.19,10.19,0,0,1-4.76,4.37c-3.28,1.41-6.9.17-9.44-3.18a19.23,19.23,0,0,1-3.69-10.07,22.61,22.61,0,0,1,2.46-13.39,10.77,10.77,0,0,1,6.76-5.61Z"/><path class="cls-2" d="M171.36,46c-.59,6.56-3,12.09-9,15.59a6.86,6.86,0,0,1-4.46,1,6.06,6.06,0,0,1-5.21-4.85c-1.38-5.14.1-9.77,2.85-14.1a15.05,15.05,0,0,1,5.24-5.07c4.63-2.67,9.18-.63,10.24,4.59A12.12,12.12,0,0,1,171.36,46Z"/><path class="cls-2" d="M115.42,54.1a10.62,10.62,0,0,1-1,4.94,5.91,5.91,0,0,1-7.37,3.24c-3.6-1.12-6-3.66-7.87-6.79a17.59,17.59,0,0,1-2.63-12c.86-5.44,5.52-7.73,10.25-4.93s7.27,7.38,8.38,12.73a14.11,14.11,0,0,1,.22,1.57C115.45,53.27,115.42,53.68,115.42,54.1Z"/><text class="cls-1" transform="translate(0 84.4)"><tspan xml:space="preserve">W    GS</tspan></text></svg>